<?xml version="1.0" standalone="no"?>
<!DOCTYPE svg PUBLIC "-//W3C//DTD SVG 20010904//EN"
 "http://www.w3.org/TR/2001/REC-SVG-20010904/DTD/svg10.dtd">
<svg version="1.0" xmlns="http://www.w3.org/2000/svg"
 width="300.000000pt" height="300.000000pt" viewBox="0 0 300.000000 300.000000"
 preserveAspectRatio="xMidYMid meet">
<metadata>
Created by potrace 1.11, written by Peter Selinger 2001-2013
</metadata>
<g transform="translate(0.000000,300.000000) scale(0.100000,-0.100000)"
fill="#000000" stroke="none">
<path d="M1212 2661 c-15 -9 -15 -103 -1 -153 11 -38 -4 -35 -26 6 -15 28 -22
32 -43 27 -45 -12 -50 -36 -17 -71 32 -34 28 -37 -16 -15 -16 9 -53 18 -83 21
-48 5 -54 3 -59 -15 -6 -24 -2 -28 88 -75 76 -39 139 -95 187 -164 33 -48 31
-67 -8 -82 -22 -9 -25 -15 -21 -44 2 -19 7 -39 11 -44 3 -6 -4 -18 -16 -26
-43 -30 -149 -138 -191 -194 -23 -31 -45 -59 -48 -62 -14 -11 -110 -173 -161
-270 -87 -166 -102 -217 -102 -340 1 -164 50 -270 164 -354 137 -101 311 -154
528 -160 l87 -3 1 -142 c1 -158 -2 -191 -21 -191 -15 0 -41 -37 -46 -64 -3
-13 -25 -27 -68 -42 -95 -34 -124 -68 -136 -158 l-7 -46 416 0 c244 0 417 4
421 9 8 15 -33 116 -59 144 -33 35 -72 53 -146 68 -76 15 -90 23 -90 54 0 13
-5 25 -10 27 -6 2 -12 62 -13 150 -2 82 -7 151 -10 155 -4 3 -7 16 -7 27 0 18
11 24 83 40 167 37 306 133 359 246 38 84 48 133 48 240 0 89 -7 150 -23 190
-3 8 -15 45 -27 82 -55 173 -217 402 -380 539 -73 61 -125 93 -189 115 -43 15
-57 26 -67 51 -12 27 -20 32 -51 35 -37 3 -38 4 -35 38 2 19 6 43 8 55 3 11 7
31 10 45 2 14 20 57 39 95 26 55 43 76 78 98 43 28 48 39 33 84 -10 30 -32 36
-71 17 -41 -19 -56 -36 -90 -102 -15 -29 -31 -54 -35 -57 -12 -8 0 65 20 118
18 47 18 49 -1 68 -10 10 -25 19 -31 19 -31 0 -86 -120 -75 -162 3 -11 1 -18
-6 -15 -6 2 -11 12 -13 23 -2 18 -15 116 -18 139 -5 32 -35 45 -64 26z"/>
</g>
</svg>
